<svg width="512" height="512" viewBox="0 0 512 512" fill="none" xmlns="http://www.w3.org/2000/svg">
  <rect width="512" height="512" rx="24" fill="#000000"/>
  <path d="M172 122C172 105.431 185.431 92 202 92H228C244.569 92 258 105.431 258 122V182H172V122Z" fill="#FFD45A"/>
  <rect x="166" y="176" width="98" height="16" rx="8" fill="#FFD45A"/>
  <path d="M204 182H262C262 216.242 234.242 244 200 244C165.758 244 138 216.242 138 182H204Z" fill="#F7E0D0"/>
  <path d="M84 406C84 317.663 155.663 246 244 246C284.933 246 322.257 261.476 350.547 286.927L291.5 344C280.7 354.4 277.8 370.6 284.5 384.1L302 420H84V406Z" fill="#56A7F6"/>
  <path d="M292 344L313 324L339 346L366 333L384 355L412 364L404 394L414 423L385 433L365 456L339 442L313 451L298 425L269 418L276 389L265 363L292 344Z" fill="#DCEEFF"/>
  <path d="M322 344L336 330L354 338L372 330L386 344L394 362L408 370L400 388L402 406L386 414L378 432L360 428L342 436L330 422L312 418L314 400L304 384L314 366L322 344Z" fill="#FFD45A"/>
  <circle cx="350" cy="380" r="24" fill="#F4F6F8" stroke="#111111" stroke-width="12"/>
  <path d="M380 412L402 440L420 430L414 474L398 468L384 486L372 446L380 412Z" fill="#FF5967"/>
  <path d="M320 416L304 448L286 440L292 482L308 468L320 486L336 444L320 416Z" fill="#FF5967"/>
  <path d="M26 392C26 378.193 37.193 367 51 367H234C247.807 367 259 378.193 259 392V406H26V392Z" fill="#64B5F6"/>
  <path d="M276 286C296 286 312 302 312 322C312 342 296 358 276 358C256 358 240 342 240 322C240 302 256 286 276 286Z" fill="#F7E0D0"/>
  <path d="M204 103C208.418 103 212 106.582 212 111V158C212 162.418 208.418 166 204 166C199.582 166 196 162.418 196 158V111C196 106.582 199.582 103 204 103Z" fill="#000000"/>
  <path d="M173 134C177.418 134 181 137.582 181 142V177C181 181.418 177.418 185 173 185C168.582 185 165 181.418 165 177V142C165 137.582 168.582 134 173 134Z" fill="#000000"/>
  <path d="M236 134C240.418 134 244 137.582 244 142V177C244 181.418 240.418 185 236 185C231.582 185 228 181.418 228 177V142C228 137.582 231.582 134 236 134Z" fill="#000000"/>
  <path d="M88 400H232C232 358.078 197.922 324 156 324C114.078 324 80 358.078 80 400V412H88V400Z" fill="#000000"/>
</svg>
